<svg width="1440" height="283" viewBox="0 0 1440 283" fill="none" xmlns="http://www.w3.org/2000/svg">
<path fill-rule="evenodd" clip-rule="evenodd" d="M0 23.7104L60 59.7104C120 95.7104 240 167.71 360 167.71C480 167.71 600 95.7104 720 52.7104C840 8.71042 960 -5.28958 1080 1.71042C1200 8.71042 1320 37.7104 1380 52.7104L1440 66.7104V282.71H1380C1320 282.71 1200 282.71 1080 282.71C960 282.71 840 282.71 720 282.71C600 282.71 480 282.71 360 282.71C240 282.71 120 282.71 60 282.71H0V23.7104Z" fill="black"/>
</svg>
