<svg width="40" height="44" viewBox="0 0 40 44" fill="none" xmlns="http://www.w3.org/2000/svg">
<g clip-path="url(#clip0_13:19)">
<path d="M0 0L3.66643 39.7214L19.5553 43.9999L35.4439 39.7214L39.1109 0H0Z" fill="#1758A7"/>
<path d="M19.5551 3.21741V40.5877L19.5909 40.5974L32.449 37.1351L35.4168 3.21741H19.5551Z" fill="#379AD6"/>
<path d="M19.5105 30.4265L19.502 30.4291L14.1936 29.076L13.8719 25.1792H8.93882L9.58221 32.7023L19.5555 35.679V30.4138L19.5105 30.4265Z" fill="#E8E8E7"/>
<path d="M19.5556 17.831V22.6103H19.5697L25.4655 22.6168L25.0871 28.8642L19.5697 30.4186L19.5556 30.4226V35.6735L19.5697 35.6778L19.5737 35.679L29.5736 32.7582L30.8709 17.831H19.5556Z" fill="#FBFBFA"/>
<path d="M8.24101 17.831L8.61642 22.6053L8.61701 22.6128L19.5556 22.6135V17.831H8.24101Z" fill="#E5E4E2"/>
<path d="M8.24172 17.831H19.5278L19.5555 17.8189V13.0472L8.24172 17.831Z" fill="#EEEEEE"/>
<path d="M20.2168 12.815L19.5556 13.0919V17.8299L31.222 12.815H20.2168Z" fill="white"/>
<path d="M7.1922 8.03281L7.78342 12.815H19.5556V8.03281H7.1922Z" fill="#E7E7E6"/>
<path d="M19.5556 12.815L31.6851 8.03281H19.5556V12.815ZM19.5588 12.815H31.2022L31.6852 8.03281L19.5588 12.815Z" fill="#F8F8F7"/>
</g>
<defs>
<clipPath id="clip0_13:19">
<rect width="39.1109" height="44" fill="white"/>
</clipPath>
</defs>
</svg>
