<svg width="42" height="44" viewBox="0 0 42 44" fill="none" xmlns="http://www.w3.org/2000/svg">
<path d="M38.6406 0.115784L35.1265 39.4829L19.3303 43.8621L3.57771 39.4891L0.0673065 0.115784H38.6406Z" fill="#E44D26"/>
<path d="M19.354 40.5148L32.118 36.9761L35.121 3.33511H19.354V40.5148Z" fill="#F16529"/>
<path d="M12.5226 12.9932H19.3539V8.16415H7.24518L7.36077 9.4597L8.54764 22.767H19.3539V17.9381H12.964L12.5226 12.9932Z" fill="#EBEBEB"/>
<path d="M13.6109 25.1816H8.7634L9.43993 32.7638L19.3317 35.5098L19.3539 35.5036V30.4795L19.3328 30.4851L13.9547 29.0329L13.6109 25.1816Z" fill="#EBEBEB"/>
<path d="M19.3373 22.767H25.2836L24.7231 29.0298L19.3373 30.4835V35.5075L29.2369 32.7638L29.3095 31.9479L30.4443 19.2348L30.5621 17.9381H19.3373V22.767Z" fill="white"/>
<path d="M19.3373 12.9814V12.9932H31.0015L31.0984 11.9078L31.3184 9.4597L31.4339 8.16415H19.3373V12.9814Z" fill="white"/>
</svg>
