<svg width="99" height="42" viewBox="0 0 99 42" fill="none" xmlns="http://www.w3.org/2000/svg">
<g clip-path="url(#clip0_13:56)">
<path d="M94.0768 15.3167C94.0768 12.1727 94.5605 10.3186 94.5605 6.93282C94.5605 1.6929 92.6257 0 88.3532 0H85.2092V3.70825H86.1766C88.3532 3.70825 88.8368 4.43378 88.8368 7.09405C88.8368 9.59309 88.595 12.0921 88.595 14.9942C88.595 18.7025 89.8042 20.1536 92.2226 20.7179V20.9597C89.8042 21.524 88.595 22.975 88.595 26.6833C88.595 29.5854 88.8368 31.9232 88.8368 34.5835C88.8368 37.3244 88.2726 38.0499 86.1766 38.0499V38.1305H85.2092V42H88.3532C92.6257 42 94.5605 40.3071 94.5605 35.0672C94.5605 31.6008 94.0768 29.8273 94.0768 26.6833C94.0768 24.9904 95.1248 23.2169 98.2687 23.0557V18.8637C95.1248 18.7831 94.0768 17.0096 94.0768 15.3167ZM77.8733 20.2342C75.4549 19.2668 73.1977 18.7025 73.1977 17.0902C73.1977 15.881 74.1651 15.1555 75.9386 15.1555C77.7121 15.1555 79.3244 15.881 81.0979 17.1708L84.3225 12.8983C82.3071 11.3666 79.5662 9.75432 75.858 9.75432C70.3762 9.75432 66.6679 12.8983 66.6679 17.3321C66.6679 21.2822 70.1344 23.2975 73.0365 24.4261C75.5355 25.3935 77.9539 26.1996 77.9539 27.8119C77.9539 29.0211 76.9866 29.8273 74.81 29.8273C72.7946 29.8273 70.7793 29.0211 68.6027 27.3282L65.3781 32.0038C67.7965 34.0192 71.5048 35.3896 74.5681 35.3896C81.0173 35.3896 84.4837 32.0038 84.4837 27.5701C84.4837 23.1363 81.0173 21.2822 77.8733 20.2342ZM22.8138 29.3436C22.2495 29.3436 21.524 28.8599 21.524 27.3282V3.86948V0.322457V0H10.0768C5.72361 0 3.78887 1.6929 3.78887 6.93282C3.78887 10.3992 4.27255 12.334 4.27255 15.3167C4.27255 17.0096 3.22457 18.7831 0.0806122 18.9443V23.1363C3.22457 23.2169 4.27255 24.9904 4.27255 26.6833C4.27255 29.666 3.78887 31.4395 3.78887 34.9059C3.78887 40.1459 5.72361 41.8388 9.99616 41.8388H13.1401V38.1305H12.1727C10.1574 38.1305 9.51247 37.3244 9.51247 34.6641C9.51247 32.0038 9.75432 29.7466 9.75432 26.7639C9.75432 23.0557 8.5451 21.6046 6.12668 21.0403V20.7985C8.5451 20.2342 9.75432 18.7831 9.75432 15.0749C9.75432 12.1727 9.51247 9.83493 9.51247 7.17466C9.51247 4.5144 10.0768 3.78887 12.1727 3.78887H14.3493C14.3493 9.02879 14.3493 26.9251 14.3493 26.9251C14.3493 31.8426 16.0422 35.0672 20.9597 35.0672C22.4914 35.0672 23.7006 34.8253 24.5873 34.5029L23.7812 29.263C23.2975 29.3436 23.0557 29.3436 22.8138 29.3436ZM58.3647 20.2342C55.8656 19.2668 53.6084 18.7025 53.6084 17.0902C53.6084 15.881 54.5758 15.1555 56.3493 15.1555C58.1228 15.1555 59.7351 15.881 61.5086 17.1708L64.7332 12.8983C62.7179 11.3666 59.977 9.75432 56.2687 9.75432C50.7869 9.75432 47.0787 12.8983 47.0787 17.3321C47.0787 21.2822 50.5451 23.2975 53.4472 24.4261C55.9463 25.3935 58.3647 26.1996 58.3647 27.8119C58.3647 29.0211 57.3973 29.8273 55.2207 29.8273C53.2054 29.8273 51.19 29.0211 49.0134 27.3282L45.8695 32.0038C48.2879 34.0192 51.9962 35.3896 55.0595 35.3896C61.5086 35.3896 64.975 32.0038 64.975 27.5701C64.975 23.1363 61.5086 21.2822 58.3647 20.2342ZM34.5835 9.6737C28.6987 9.6737 23.0557 14.5912 23.2169 22.3301C23.2169 30.3109 28.4568 34.9866 35.3896 34.9866C38.2917 34.9866 41.5163 33.9386 44.0154 32.2457L41.5969 27.9731C39.8234 29.0211 38.1305 29.5048 36.357 29.5048C33.1324 29.5048 30.6334 27.9731 29.9885 24.2649H44.5797C44.6603 23.7006 44.8215 22.572 44.8215 21.2822C44.9021 14.7524 41.3551 9.6737 34.5835 9.6737ZM29.9885 19.8311C30.4722 16.6065 32.4069 15.0749 34.6641 15.0749C37.5662 15.0749 38.6948 17.0902 38.6948 19.8311H29.9885Z" fill="white"/>
</g>
<defs>
<clipPath id="clip0_13:56">
<rect width="98.1075" height="42" fill="white"/>
</clipPath>
</defs>
</svg>
