<svg width="57" height="42" viewBox="0 0 57 42" fill="none" xmlns="http://www.w3.org/2000/svg">
<g clip-path="url(#clip0_13:58)">
<path d="M48.2192 24.1403C46.2655 24.1505 44.5675 24.621 43.1457 25.3166C42.624 24.2835 42.1023 23.3629 42.0102 22.6878C41.908 21.9002 41.7852 21.4194 41.908 20.4783C42.0307 19.5373 42.5831 18.1973 42.5728 18.095C42.5626 17.9927 42.4501 17.5119 41.3249 17.5017C40.1997 17.4915 39.228 17.7165 39.1155 18.0132C39.0029 18.3098 38.7881 18.9849 38.6449 19.6805C38.4506 20.7034 36.3946 24.3551 35.2182 26.2679C34.8398 25.5212 34.5124 24.8665 34.4408 24.3449C34.3385 23.5572 34.2158 23.0765 34.3385 22.1354C34.4613 21.1944 35.0136 19.8544 35.0034 19.7521C34.9932 19.6498 34.8807 19.169 33.7555 19.1588C32.6303 19.1486 31.6586 19.3736 31.546 19.6702C31.4335 19.9669 31.3108 20.6625 31.0755 21.3376C30.8402 22.0127 28.1091 28.1091 27.3931 29.6844C27.0248 30.4925 26.7078 31.1369 26.4827 31.5767C26.4827 31.5767 26.4725 31.6074 26.4418 31.6585C26.2474 32.037 26.1349 32.2416 26.1349 32.2416C26.1349 32.2416 26.1349 32.2416 26.1349 32.2518C25.9815 32.528 25.8178 32.7837 25.736 32.7837C25.6746 32.7837 25.5621 32.0472 25.7565 31.0448C26.1656 28.9274 27.1374 25.6337 27.1271 25.5212C27.1271 25.4598 27.3113 24.887 26.4929 24.5904C25.6951 24.2937 25.4087 24.7847 25.3371 24.7847C25.2655 24.7847 25.2143 24.9586 25.2143 24.9586C25.2143 24.9586 26.1042 21.2557 23.5163 21.2557C21.9002 21.2557 19.6702 23.0253 18.5655 24.621C17.8699 24.9995 16.3868 25.8076 14.8013 26.6771C14.1978 27.0146 13.5738 27.3522 12.9907 27.6693C12.9498 27.6284 12.9089 27.5772 12.868 27.5363C9.73795 24.1914 3.94837 21.8285 4.19386 17.338C4.28592 15.7014 4.84851 11.4053 15.3127 6.18851C23.9255 1.94351 30.7789 3.11984 31.9654 5.72821C33.6634 9.45154 28.2932 16.3663 19.3941 17.3687C15.9981 17.7472 14.2182 16.4379 13.7681 15.9469C13.2976 15.4355 13.226 15.4048 13.0521 15.5071C12.7657 15.6605 12.9498 16.1208 13.0521 16.3868C13.3181 17.0823 14.4126 18.3098 16.264 18.9133C17.9006 19.4452 21.8797 19.7418 26.6975 17.8802C32.0882 15.7935 36.3025 9.99368 35.0648 5.13493C33.8271 0.204591 25.6439 -1.42181 17.9006 1.32977C13.2976 2.9664 8.30589 5.54409 4.71554 8.89918C0.450069 12.8885 -0.22504 16.3561 0.0511411 17.8086C1.04335 22.964 8.15246 26.319 10.9961 28.8047C10.8529 28.8865 10.7199 28.9581 10.6074 29.0195C9.18558 29.7253 3.76425 32.5587 2.41403 35.5558C0.879685 38.9518 2.65952 41.3863 3.83585 41.7136C7.48758 42.7262 11.2416 40.9055 13.2567 37.8982C15.2718 34.8909 15.0263 30.9834 14.0955 29.1934C14.0852 29.1729 14.075 29.1525 14.0546 29.132C14.4228 28.9172 14.8013 28.6922 15.1695 28.4774C15.8958 28.0477 16.6118 27.6488 17.2255 27.3215C16.8777 28.2728 16.622 29.4082 16.4993 31.0448C16.3458 32.9679 17.1335 35.4637 18.1666 36.4457C18.6269 36.8753 19.169 36.8855 19.5168 36.8855C20.7238 36.8855 21.266 35.8831 21.8695 34.6965C22.6059 33.244 23.2708 31.5563 23.2708 31.5563C23.2708 31.5563 22.4423 36.1184 24.6926 36.1184C25.511 36.1184 26.3395 35.0546 26.7078 34.5124C26.7078 34.5226 26.7078 34.5226 26.7078 34.5226C26.7078 34.5226 26.7282 34.492 26.7691 34.4204C26.851 34.2874 26.9021 34.2056 26.9021 34.2056C26.9021 34.2056 26.9021 34.1953 26.9021 34.1851C27.2294 33.6123 27.9659 32.3132 29.0604 30.1549C30.472 27.3726 31.8324 23.8948 31.8324 23.8948C31.8324 23.8948 31.9552 24.7438 32.3746 26.1554C32.6201 26.9839 33.1315 27.8943 33.5407 28.774C33.2134 29.2343 33.0088 29.49 33.0088 29.49C33.0088 29.49 33.0088 29.49 33.019 29.5002C32.7531 29.848 32.4666 30.2265 32.1495 30.5947C31.0346 31.9245 29.7048 33.4486 29.5207 33.8885C29.3059 34.4101 29.357 34.7886 29.7662 35.0955C30.0628 35.3205 30.5947 35.3512 31.1369 35.3205C32.1393 35.2489 32.8451 35.0034 33.1929 34.85C33.735 34.6556 34.3692 34.359 34.9625 33.9191C36.057 33.1111 36.7219 31.9552 36.6605 30.4311C36.6298 29.5923 36.3536 28.7535 36.0161 27.9659C36.1184 27.8227 36.2104 27.6795 36.3127 27.5363C38.0414 25.0097 39.3814 22.2377 39.3814 22.2377C39.3814 22.2377 39.5042 23.0867 39.9235 24.4983C40.1281 25.2143 40.5475 25.9917 40.9157 26.7487C39.2893 28.0682 38.2869 29.6025 37.9289 30.605C37.2845 32.4666 37.7857 33.3054 38.737 33.4998C39.1666 33.5918 39.7803 33.3872 40.2304 33.1929C40.8032 33.0088 41.4783 32.6917 42.1228 32.2211C43.2173 31.4131 44.2708 30.2879 44.2095 28.7638C44.1788 28.0682 43.9947 27.3829 43.7389 26.718C45.1198 26.1452 46.8997 25.8281 49.1705 26.094C54.0395 26.6668 55.001 29.7048 54.8169 30.9834C54.6328 32.2621 53.6099 32.9576 53.2723 33.1724C52.9347 33.3872 52.8222 33.4588 52.8529 33.6123C52.8938 33.8373 53.0575 33.8271 53.3439 33.7862C53.7428 33.7146 55.9011 32.753 55.9932 30.4004C56.1466 27.3931 53.2825 24.1096 48.2192 24.1403ZM10.6585 36.8037C9.04238 38.5631 6.79201 39.228 5.82026 38.6654C4.77691 38.0619 5.18607 35.4637 7.17048 33.602C8.3775 32.4666 9.93229 31.4131 10.9654 30.7686C11.2007 30.6254 11.5485 30.4208 11.9679 30.1651C12.0395 30.1242 12.0804 30.1038 12.0804 30.1038C12.1622 30.0526 12.244 30.0015 12.3259 29.9503C13.0521 32.6098 12.3566 34.9523 10.6585 36.8037ZM22.4218 28.8047C21.8592 30.1754 20.6829 33.6839 19.9669 33.4895C19.3531 33.3259 18.9747 30.6663 19.8441 28.0375C20.284 26.718 21.2148 25.1427 21.7569 24.529C22.6366 23.547 23.6084 23.2197 23.8436 23.6186C24.1403 24.1403 22.7696 27.9454 22.4218 28.8047ZM32.1291 33.4486C31.8938 33.5714 31.6688 33.6532 31.5665 33.5918C31.4949 33.5509 31.6688 33.3872 31.6688 33.3872C31.6688 33.3872 32.886 32.0779 33.3668 31.4847C33.643 31.1369 33.9703 30.7277 34.3181 30.2674C34.3181 30.3083 34.3181 30.3595 34.3181 30.4004C34.3181 31.9654 32.8042 33.019 32.1291 33.4486ZM39.6167 31.7404C39.4428 31.6176 39.4735 31.2085 40.0565 29.9299C40.2816 29.4286 40.8135 28.5899 41.7238 27.7818C41.8261 28.1091 41.8977 28.4262 41.8875 28.7228C41.8773 30.697 40.4657 31.4335 39.6167 31.7404Z" fill="#CD6799"/>
</g>
<defs>
<clipPath id="clip0_13:58">
<rect width="56.0341" height="42" fill="white"/>
</clipPath>
</defs>
</svg>
